# xmcd
# 
# Track frame offsets:
#     150
#     20769
#     49380
#     76425
#     107537
#     133357
#     151540
#     176952
#     201412
# 
# Disc length: 2972
# 
# Revision: 4
# Processed by: cddbd v1.5.2PL0 Copyright (c) Steve Scherf et al.
# Submitted via: BonkEnc v1.0.6
# 
DISCID=7d0b9a09
DTITLE=Cornell Dupree - Bop 'N' Blues
DYEAR=1995
DGENRE=Fusion
TTITLE0=Freedom Jazz Dance
TTITLE1=Bags' Groove
TTITLE2=Manteca
TTITLE3='Round Midnight
TTITLE4=Hucklebuck/Now's The Time
TTITLE5=Love Letter
TTITLE6=My Little Suede Shows
TTITLE7=Walkin'
TTITLE8=Bop 'N' Blues
EXTD=
EXTT0=
EXTT1=
EXTT2=
EXTT3=
EXTT4=
EXTT5=
EXTT6=
EXTT7=
EXTT8=
PLAYORDER=
